<svg xmlns="http://www.w3.org/2000/svg" viewBox="0 0 64 64"><defs><linearGradient id="cream" x2=".6" y2="1"><stop stop-color="#fffaf2"/><stop offset="1" stop-color="#ffe0b7"/></linearGradient><linearGradient id="mint" x2=".4" y2="1"><stop stop-color="#baf3e1"/><stop offset="1" stop-color="#21d4b6"/></linearGradient><linearGradient id="blue" x2=".5" y2="1"><stop stop-color="#488afa"/><stop offset="1" stop-color="#1358df"/></linearGradient></defs><path d="m8 43 24-10 24 10v5L32 59 8 48Z" fill="#1358df"/><path d="m8 38 24-10 24 10-24 11Z" fill="#b8eee0" stroke="#1358df" stroke-width="2"/><path d="m8 29 24-10 24 10v5L32 45 8 34Z" fill="#1358df"/><path d="m8 24 24-10 24 10-24 11Z" fill="url(#cream)" stroke="#1358df" stroke-width="2"/><path d="m8 16 24-10 24 10v5L32 32 8 21Z" fill="#1358df"/><path d="m8 12 24-9 24 9-24 11Z" fill="url(#mint)" stroke="#1358df" stroke-width="2"/></svg>